<mxfile host="Electron" agent="Mozilla/5.0 (Macintosh; Intel Mac OS X 10_15_7) AppleWebKit/537.36 (KHTML, like Gecko) draw.io/24.7.5 Chrome/126.0.6478.183 Electron/31.3.0 Safari/537.36" version="24.7.5">
  <diagram name="第 1 页" id="JGTNSw7YOtRR2n-2OMZs">
    <mxGraphModel dx="3997" dy="2417" grid="1" gridSize="10" guides="1" tooltips="1" connect="1" arrows="1" fold="1" page="1" pageScale="1" pageWidth="827" pageHeight="1169" math="0" shadow="0">
      <root>
        <mxCell id="0" />
        <mxCell id="1" parent="0" />
        <mxCell id="ScsCbn858ug2dNW6hYMq-3" value="Graph Edge" style="rounded=0;whiteSpace=wrap;verticalAlign=top;fontSize=20;fontFamily=Poppins;fontColor=#CC0066;strokeColor=#CC0066;" parent="1" vertex="1">
          <mxGeometry x="-1050" y="-1130" width="350" height="340" as="geometry" />
        </mxCell>
        <mxCell id="ScsCbn858ug2dNW6hYMq-37" style="rounded=0;orthogonalLoop=1;jettySize=auto;html=1;exitX=0.5;exitY=1;exitDx=0;exitDy=0;entryX=0.5;entryY=0;entryDx=0;entryDy=0;strokeColor=#999900;strokeWidth=2;fontFamily=Poppins;" parent="1" source="ScsCbn858ug2dNW6hYMq-3" target="ScsCbn858ug2dNW6hYMq-19" edge="1">
          <mxGeometry relative="1" as="geometry" />
        </mxCell>
        <mxCell id="ScsCbn858ug2dNW6hYMq-2" value="Graph Node" style="rounded=0;whiteSpace=wrap;fontFamily=Poppins;fontSize=20;labelBackgroundColor=none;fontColor=default;fontStyle=0;verticalAlign=top;" parent="1" vertex="1">
          <mxGeometry x="-1430" y="-1130" width="350" height="340" as="geometry" />
        </mxCell>
        <mxCell id="DDGEUJCVJTAiT2eQpah1-33" style="edgeStyle=orthogonalEdgeStyle;rounded=0;orthogonalLoop=1;jettySize=auto;html=1;entryX=0;entryY=0;entryDx=0;entryDy=30;entryPerimeter=0;fontSize=18;fontFamily=Roboto;labelBackgroundColor=none;fontColor=default;fontStyle=0;exitX=0;exitY=0.5;exitDx=0;exitDy=0;exitPerimeter=0;" parent="1" edge="1">
          <mxGeometry relative="1" as="geometry">
            <Array as="points" />
            <mxPoint x="-877.25" y="-60.5" as="targetPoint" />
          </mxGeometry>
        </mxCell>
        <mxCell id="DDGEUJCVJTAiT2eQpah1-77" style="edgeStyle=orthogonalEdgeStyle;rounded=0;orthogonalLoop=1;jettySize=auto;html=1;entryX=0;entryY=0.5;entryDx=0;entryDy=0;entryPerimeter=0;fontFamily=Roboto;fontSize=18;labelBackgroundColor=none;fontColor=default;fontStyle=0;" parent="1" edge="1">
          <mxGeometry relative="1" as="geometry">
            <mxPoint x="-784.75" y="-60.5" as="targetPoint" />
          </mxGeometry>
        </mxCell>
        <mxCell id="ScsCbn858ug2dNW6hYMq-9" value="llama3.2&#xa;&#xa;Ollama" style="rounded=0;whiteSpace=wrap;labelBackgroundColor=none;fillColor=#F45B69;strokeColor=#028090;fontColor=#E4FDE1;fontFamily=Poppins;flipV=1;verticalAlign=middle;align=center;fontSize=16;fontStyle=0" parent="1" vertex="1">
          <mxGeometry x="-1410" y="-873.5" width="150" height="60" as="geometry" />
        </mxCell>
        <mxCell id="ScsCbn858ug2dNW6hYMq-18" value="START" style="rounded=1;whiteSpace=wrap;html=1;strokeColor=#003366;fontColor=#182E3E;fillColor=default;fontFamily=Poppins;strokeWidth=2;fontStyle=1" parent="1" vertex="1">
          <mxGeometry x="-1590" y="-990" width="120" height="60" as="geometry" />
        </mxCell>
        <mxCell id="ScsCbn858ug2dNW6hYMq-19" value="END" style="rounded=1;whiteSpace=wrap;html=1;strokeColor=#003366;fontColor=#182E3E;fillColor=default;fontFamily=Poppins;strokeWidth=2;fontStyle=1" parent="1" vertex="1">
          <mxGeometry x="-933" y="-743.5" width="120" height="60" as="geometry" />
        </mxCell>
        <mxCell id="ScsCbn858ug2dNW6hYMq-20" style="rounded=0;orthogonalLoop=1;jettySize=auto;html=1;exitX=1;exitY=0.5;exitDx=0;exitDy=0;entryX=0;entryY=0.5;entryDx=0;entryDy=0;strokeColor=#999900;fontColor=#FFFFFF;strokeWidth=2;fontFamily=Poppins;" parent="1" source="ScsCbn858ug2dNW6hYMq-18" target="ScsCbn858ug2dNW6hYMq-2" edge="1">
          <mxGeometry relative="1" as="geometry">
            <mxPoint x="-1940" y="-1683.5" as="sourcePoint" />
            <mxPoint x="-1885" y="-1623.5" as="targetPoint" />
          </mxGeometry>
        </mxCell>
        <mxCell id="ScsCbn858ug2dNW6hYMq-21" value="tools" style="rounded=0;whiteSpace=wrap;fontFamily=Poppins;fontSize=16;labelBackgroundColor=none;fontColor=#FFFFFF;fontStyle=0;verticalAlign=middle;fillColor=#56517E;align=center;" parent="1" vertex="1">
          <mxGeometry x="-1250" y="-943.5" width="150" height="60" as="geometry" />
        </mxCell>
        <mxCell id="ScsCbn858ug2dNW6hYMq-51" value="SYSTEM MESSAGE" style="rounded=0;whiteSpace=wrap;labelBackgroundColor=none;fillColor=#A8DADC;strokeColor=#457B9D;fontColor=#1D3557;align=center;spacingLeft=10;fontFamily=Poppins;fontSize=16;verticalAlign=middle;fontStyle=0" parent="1" vertex="1">
          <mxGeometry x="-1410" y="-1083.5" width="150" height="60" as="geometry" />
        </mxCell>
        <mxCell id="ScsCbn858ug2dNW6hYMq-55" value="HUMAN MESSAGE" style="rounded=0;whiteSpace=wrap;strokeColor=none;fontColor=#46495D;fillColor=#B2C9AB;labelBackgroundColor=none;align=center;spacingLeft=10;fontFamily=Poppins;fontStyle=0;verticalAlign=middle;fontSize=16;" parent="1" vertex="1">
          <mxGeometry x="-1250" y="-1083.5" width="150" height="60" as="geometry" />
        </mxCell>
        <mxCell id="ScsCbn858ug2dNW6hYMq-59" value="FRAMEWORK API" style="rounded=0;whiteSpace=wrap;labelBackgroundColor=none;fillColor=#F2CC8F;strokeColor=#E07A5F;fontColor=#393C56;fontFamily=Poppins;flipV=1;verticalAlign=middle;align=center;fontSize=16;fontStyle=0" parent="1" vertex="1">
          <mxGeometry x="-1410" y="-943.5" width="150" height="60" as="geometry" />
        </mxCell>
        <mxCell id="vCSyPXUICVTOdkfU3usH-1" value="PROMPT" style="rounded=0;whiteSpace=wrap;labelBackgroundColor=none;fillColor=#A8DADC;strokeColor=#457B9D;fontColor=#1D3557;align=center;spacingLeft=10;fontFamily=Poppins;fontSize=16;verticalAlign=middle;fontStyle=0" parent="1" vertex="1">
          <mxGeometry x="-1410" y="-1013.5" width="150" height="60" as="geometry" />
        </mxCell>
        <mxCell id="vCSyPXUICVTOdkfU3usH-2" value="llama3.2&#xa;&#xa;Ollama" style="rounded=0;whiteSpace=wrap;labelBackgroundColor=none;fillColor=#F45B69;strokeColor=#028090;fontColor=#E4FDE1;fontFamily=Poppins;flipV=1;verticalAlign=middle;align=center;fontSize=16;fontStyle=0" parent="1" vertex="1">
          <mxGeometry x="-1028" y="-873.5" width="150" height="60" as="geometry" />
        </mxCell>
        <mxCell id="vCSyPXUICVTOdkfU3usH-3" value="tools" style="rounded=0;whiteSpace=wrap;fontFamily=Poppins;fontSize=16;labelBackgroundColor=none;fontColor=#FFFFFF;fontStyle=0;verticalAlign=middle;fillColor=#56517E;align=center;" parent="1" vertex="1">
          <mxGeometry x="-868" y="-943.5" width="150" height="60" as="geometry" />
        </mxCell>
        <mxCell id="vCSyPXUICVTOdkfU3usH-4" value="SYSTEM MESSAGE" style="rounded=0;whiteSpace=wrap;labelBackgroundColor=none;fillColor=#A8DADC;strokeColor=#457B9D;fontColor=#1D3557;align=center;spacingLeft=10;fontFamily=Poppins;fontSize=16;verticalAlign=middle;fontStyle=0" parent="1" vertex="1">
          <mxGeometry x="-1028" y="-1083.5" width="150" height="60" as="geometry" />
        </mxCell>
        <mxCell id="vCSyPXUICVTOdkfU3usH-5" value="HUMAN MESSAGE" style="rounded=0;whiteSpace=wrap;strokeColor=none;fontColor=#46495D;fillColor=#B2C9AB;labelBackgroundColor=none;align=center;spacingLeft=10;fontFamily=Poppins;fontStyle=0;verticalAlign=middle;fontSize=16;" parent="1" vertex="1">
          <mxGeometry x="-868" y="-1083.5" width="150" height="60" as="geometry" />
        </mxCell>
        <mxCell id="vCSyPXUICVTOdkfU3usH-6" value="FRAMEWORK API" style="rounded=0;whiteSpace=wrap;labelBackgroundColor=none;fillColor=#F2CC8F;strokeColor=#E07A5F;fontColor=#393C56;fontFamily=Poppins;flipV=1;verticalAlign=middle;align=center;fontSize=16;fontStyle=0" parent="1" vertex="1">
          <mxGeometry x="-1028" y="-943.5" width="150" height="60" as="geometry" />
        </mxCell>
        <mxCell id="vCSyPXUICVTOdkfU3usH-7" value="PROMPT" style="rounded=0;whiteSpace=wrap;labelBackgroundColor=none;fillColor=#A8DADC;strokeColor=#457B9D;fontColor=#1D3557;align=center;spacingLeft=10;fontFamily=Poppins;fontSize=16;verticalAlign=middle;fontStyle=0" parent="1" vertex="1">
          <mxGeometry x="-1028" y="-1013.5" width="150" height="60" as="geometry" />
        </mxCell>
        <mxCell id="vCSyPXUICVTOdkfU3usH-8" value="Graph Node" style="rounded=0;whiteSpace=wrap;fontFamily=Poppins;fontSize=20;labelBackgroundColor=none;fontColor=default;fontStyle=0;verticalAlign=top;" parent="1" vertex="1">
          <mxGeometry x="-670" y="-1130" width="350" height="340" as="geometry" />
        </mxCell>
        <mxCell id="vCSyPXUICVTOdkfU3usH-9" value="llama3.2&#xa;&#xa;Ollama" style="rounded=0;whiteSpace=wrap;labelBackgroundColor=none;fillColor=#F45B69;strokeColor=#028090;fontColor=#E4FDE1;fontFamily=Poppins;flipV=1;verticalAlign=middle;align=center;fontSize=16;fontStyle=0" parent="1" vertex="1">
          <mxGeometry x="-650" y="-873.5" width="150" height="60" as="geometry" />
        </mxCell>
        <mxCell id="vCSyPXUICVTOdkfU3usH-10" value="tools" style="rounded=0;whiteSpace=wrap;fontFamily=Poppins;fontSize=16;labelBackgroundColor=none;fontColor=#FFFFFF;fontStyle=0;verticalAlign=middle;fillColor=#56517E;align=center;" parent="1" vertex="1">
          <mxGeometry x="-490" y="-943.5" width="150" height="60" as="geometry" />
        </mxCell>
        <mxCell id="vCSyPXUICVTOdkfU3usH-11" value="SYSTEM MESSAGE" style="rounded=0;whiteSpace=wrap;labelBackgroundColor=none;fillColor=#A8DADC;strokeColor=#457B9D;fontColor=#1D3557;align=center;spacingLeft=10;fontFamily=Poppins;fontSize=16;verticalAlign=middle;fontStyle=0" parent="1" vertex="1">
          <mxGeometry x="-650" y="-1083.5" width="150" height="60" as="geometry" />
        </mxCell>
        <mxCell id="vCSyPXUICVTOdkfU3usH-12" value="HUMAN MESSAGE" style="rounded=0;whiteSpace=wrap;strokeColor=none;fontColor=#46495D;fillColor=#B2C9AB;labelBackgroundColor=none;align=center;spacingLeft=10;fontFamily=Poppins;fontStyle=0;verticalAlign=middle;fontSize=16;" parent="1" vertex="1">
          <mxGeometry x="-490" y="-1083.5" width="150" height="60" as="geometry" />
        </mxCell>
        <mxCell id="vCSyPXUICVTOdkfU3usH-13" value="FRAMEWORK API" style="rounded=0;whiteSpace=wrap;labelBackgroundColor=none;fillColor=#F2CC8F;strokeColor=#E07A5F;fontColor=#393C56;fontFamily=Poppins;flipV=1;verticalAlign=middle;align=center;fontSize=16;fontStyle=0" parent="1" vertex="1">
          <mxGeometry x="-650" y="-943.5" width="150" height="60" as="geometry" />
        </mxCell>
        <mxCell id="vCSyPXUICVTOdkfU3usH-14" value="PROMPT" style="rounded=0;whiteSpace=wrap;labelBackgroundColor=none;fillColor=#A8DADC;strokeColor=#457B9D;fontColor=#1D3557;align=center;spacingLeft=10;fontFamily=Poppins;fontSize=16;verticalAlign=middle;fontStyle=0" parent="1" vertex="1">
          <mxGeometry x="-650" y="-1013.5" width="150" height="60" as="geometry" />
        </mxCell>
        <mxCell id="vCSyPXUICVTOdkfU3usH-15" style="rounded=0;orthogonalLoop=1;jettySize=auto;html=1;exitX=0.5;exitY=1;exitDx=0;exitDy=0;entryX=0;entryY=0.5;entryDx=0;entryDy=0;strokeColor=#999900;strokeWidth=2;fontFamily=Poppins;edgeStyle=orthogonalEdgeStyle;" parent="1" source="ScsCbn858ug2dNW6hYMq-2" target="ScsCbn858ug2dNW6hYMq-19" edge="1">
          <mxGeometry relative="1" as="geometry">
            <mxPoint x="-1245" y="-780.5" as="sourcePoint" />
            <mxPoint x="-880" y="-673.5" as="targetPoint" />
          </mxGeometry>
        </mxCell>
        <mxCell id="vCSyPXUICVTOdkfU3usH-16" style="rounded=0;orthogonalLoop=1;jettySize=auto;html=1;exitX=1;exitY=0.5;exitDx=0;exitDy=0;strokeColor=#999900;strokeWidth=2;fontFamily=Poppins;" parent="1" source="ScsCbn858ug2dNW6hYMq-2" target="ScsCbn858ug2dNW6hYMq-3" edge="1">
          <mxGeometry relative="1" as="geometry">
            <mxPoint x="-1235" y="-770.5" as="sourcePoint" />
            <mxPoint x="-870" y="-663.5" as="targetPoint" />
          </mxGeometry>
        </mxCell>
        <mxCell id="vCSyPXUICVTOdkfU3usH-17" style="rounded=0;orthogonalLoop=1;jettySize=auto;html=1;exitX=1;exitY=0.5;exitDx=0;exitDy=0;entryX=0;entryY=0.5;entryDx=0;entryDy=0;strokeColor=#999900;strokeWidth=2;fontFamily=Poppins;" parent="1" source="ScsCbn858ug2dNW6hYMq-3" target="vCSyPXUICVTOdkfU3usH-8" edge="1">
          <mxGeometry relative="1" as="geometry">
            <mxPoint x="-1225" y="-760.5" as="sourcePoint" />
            <mxPoint x="-860" y="-653.5" as="targetPoint" />
          </mxGeometry>
        </mxCell>
        <mxCell id="vCSyPXUICVTOdkfU3usH-18" style="rounded=0;orthogonalLoop=1;jettySize=auto;html=1;exitX=0.5;exitY=1;exitDx=0;exitDy=0;strokeColor=#999900;strokeWidth=2;fontFamily=Poppins;entryX=1;entryY=0.5;entryDx=0;entryDy=0;edgeStyle=orthogonalEdgeStyle;" parent="1" source="vCSyPXUICVTOdkfU3usH-8" target="ScsCbn858ug2dNW6hYMq-19" edge="1">
          <mxGeometry relative="1" as="geometry">
            <mxPoint x="-1215" y="-750.5" as="sourcePoint" />
            <mxPoint x="-780" y="-693.5" as="targetPoint" />
          </mxGeometry>
        </mxCell>
      </root>
    </mxGraphModel>
  </diagram>
</mxfile>
